<svg width="75" height="112" viewBox="0 0 75 112" fill="none" xmlns="http://www.w3.org/2000/svg">
<path fill-rule="evenodd" clip-rule="evenodd" d="M20.6036 0C9.1843 0 0.000296356 9.58066 0.000296356 21.3173C0.000296356 28.4527 3.39763 34.79 8.61963 38.6587C5.92827 40.6751 3.74674 43.294 2.24993 46.3054C0.753117 49.3169 -0.017348 52.6371 0.000296356 56C0.000296356 63.14 3.39763 69.4727 8.61963 73.3413C5.92827 75.3577 3.74674 77.9766 2.24993 80.9881C0.753117 83.9995 -0.017348 87.3198 0.000296356 90.6827C0.000296356 102.419 9.1843 112 20.6036 112C32.0183 112 41.207 102.419 41.207 90.6827V72.66C44.8158 75.669 49.3649 77.3186 54.0636 77.322C65.483 77.3173 74.667 67.7367 74.667 56C74.667 48.86 71.2743 42.5273 66.0476 38.6587C68.739 36.6423 70.9205 34.0234 72.4173 31.0119C73.9141 28.0005 74.6846 24.6802 74.667 21.3173C74.667 9.58066 65.483 0 54.0636 0H20.6036ZM7.7423 21.3173C7.7423 13.8927 13.5383 7.94733 20.6036 7.94733H33.4603V34.6873H20.6036C13.5383 34.6873 7.7423 28.7373 7.7423 21.3173ZM54.0636 34.6827H41.207V7.94267H54.0636C61.1336 7.94267 66.925 13.8927 66.925 21.3173C66.925 28.7373 61.1336 34.6827 54.0636 34.6827ZM7.74696 56C7.74696 48.58 13.543 42.63 20.6083 42.63H33.465V69.37H20.6036C13.5336 69.37 7.7423 63.42 7.7423 56H7.74696ZM41.207 56C41.207 48.58 47.003 42.63 54.0683 42.63C61.1383 42.63 66.9296 48.5753 66.9296 56C66.9296 63.42 61.1383 69.37 54.0683 69.37C47.003 69.37 41.2116 63.4247 41.2116 56H41.207ZM7.74696 90.6827C7.74696 83.2627 13.543 77.3173 20.6083 77.3173H33.465V90.6827C33.465 98.1073 27.6783 104.053 20.6083 104.053C13.543 104.053 7.74696 98.1073 7.74696 90.6827Z" fill="white"/>
</svg>
