<svg width="50" height="50" viewBox="0 0 50 50" fill="none" xmlns="http://www.w3.org/2000/svg">
<rect x="1" y="1" width="48" height="48" rx="19" stroke="white" stroke-width="2"/>
<path d="M22.1125 28.5641C22.1125 29.6914 21.5285 31.5362 20.1464 31.5362C18.7643 31.5362 18.1803 29.6914 18.1803 28.5641C18.1803 27.4367 18.7643 25.5919 20.1464 25.5919C21.5285 25.5919 22.1125 27.4367 22.1125 28.5641ZM37.8571 25.84C37.8571 27.5607 37.6857 29.384 36.9196 30.9645C34.8892 35.0964 29.3071 34.9993 25.3107 34.9993C21.25 34.9993 15.3357 35.145 13.225 30.9645C12.4428 29.4001 12.1428 27.5607 12.1428 25.84C12.1428 23.5798 12.8875 21.4437 14.366 19.7122C14.0875 18.8599 13.9535 17.9645 13.9535 17.0798C13.9535 15.9201 14.216 15.3375 14.7357 14.2856C17.1625 14.2856 18.716 14.7711 20.5642 16.2276C22.1178 15.8554 23.7142 15.6881 25.316 15.6881C26.7625 15.6881 28.2196 15.8446 29.6232 16.1844C31.4446 14.7441 32.9982 14.2856 35.3982 14.2856C35.9232 15.3375 36.1803 15.9201 36.1803 17.0798C36.1803 17.9645 36.041 18.8437 35.7678 19.6798C37.241 21.4275 37.8571 23.5798 37.8571 25.84ZM34.4125 28.5641C34.4125 26.196 32.9821 24.1085 30.475 24.1085C29.4625 24.1085 28.4928 24.2919 27.475 24.4321C26.6768 24.5562 25.8785 24.6047 25.0589 24.6047C24.2446 24.6047 23.4464 24.5562 22.6428 24.4321C21.641 24.2919 20.6607 24.1085 19.6428 24.1085C17.1357 24.1085 15.7053 26.196 15.7053 28.5641C15.7053 33.3001 20.0125 34.0284 23.7625 34.0284H26.3446C30.1107 34.0284 34.4125 33.3055 34.4125 28.5641ZM29.9875 25.5919C28.6053 25.5919 28.0214 27.4367 28.0214 28.5641C28.0214 29.6914 28.6053 31.5362 29.9875 31.5362C31.3696 31.5362 31.9535 29.6914 31.9535 28.5641C31.9535 27.4367 31.3696 25.5919 29.9875 25.5919Z" fill="white"/>
</svg>
