<svg width="44" height="44" viewBox="0 0 44 44" fill="none" xmlns="http://www.w3.org/2000/svg">
<rect x="1" y="1" width="42" height="42" rx="14" stroke="#E95973" stroke-width="2"/>
<path d="M19.4588 25.1364C19.4588 26.1285 18.945 27.752 17.7287 27.752C16.5124 27.752 15.9985 26.1285 15.9985 25.1364C15.9985 24.1443 16.5124 22.5209 17.7287 22.5209C18.945 22.5209 19.4588 24.1443 19.4588 25.1364ZM33.3141 22.7392C33.3141 24.2535 33.1633 25.858 32.4891 27.2488C30.7024 30.8849 25.7901 30.7995 22.2733 30.7995C18.6998 30.7995 13.4953 30.9276 11.6378 27.2488C10.9495 25.8722 10.6855 24.2535 10.6855 22.7392C10.6855 20.7503 11.3408 18.8705 12.642 17.3468C12.3968 16.5968 12.279 15.8088 12.279 15.0303C12.279 14.0097 12.51 13.4971 12.9673 12.5714C15.1028 12.5714 16.47 12.9986 18.0964 14.2803C19.4635 13.9528 20.8684 13.8056 22.278 13.8056C23.5508 13.8056 24.8331 13.9433 26.0683 14.2423C27.6711 12.9749 29.0383 12.5714 31.1503 12.5714C31.6123 13.4971 31.8385 14.0097 31.8385 15.0303C31.8385 15.8088 31.716 16.5825 31.4755 17.3183C32.772 18.8563 33.3141 20.7503 33.3141 22.7392ZM30.2828 25.1364C30.2828 23.0525 29.0241 21.2155 26.8178 21.2155C25.9268 21.2155 25.0735 21.3769 24.1778 21.5003C23.4754 21.6095 22.773 21.6522 22.0517 21.6522C21.3351 21.6522 20.6327 21.6095 19.9255 21.5003C19.044 21.3769 18.1813 21.2155 17.2855 21.2155C15.0793 21.2155 13.8205 23.0525 13.8205 25.1364C13.8205 29.3042 17.6108 29.945 20.9108 29.945H23.1831C26.4973 29.945 30.2828 29.3089 30.2828 25.1364ZM26.3888 22.5209C25.1725 22.5209 24.6587 24.1443 24.6587 25.1364C24.6587 26.1285 25.1725 27.752 26.3888 27.752C27.6051 27.752 28.119 26.1285 28.119 25.1364C28.119 24.1443 27.6051 22.5209 26.3888 22.5209Z" fill="#E95973"/>
</svg>
