<svg width="104" height="104" viewBox="0 0 104 104" fill="none" xmlns="http://www.w3.org/2000/svg">
<path fill-rule="evenodd" clip-rule="evenodd" d="M104 0H0V104H104V0ZM55.4667 55.4667C55.4667 51.789 56.9276 48.262 59.5281 45.6615C62.1286 43.0609 65.6557 41.6 69.3333 41.6H77.4245C84.4411 41.6 90.1333 47.2853 90.1333 54.3088V55.4667H83.2V54.3088C83.2 53.5504 83.0506 52.7993 82.7604 52.0986C82.4701 51.3979 82.0447 50.7612 81.5084 50.2249C80.9721 49.6886 80.3354 49.2632 79.6347 48.973C78.934 48.6827 78.183 48.5333 77.4245 48.5333H69.3333C67.4945 48.5333 65.731 49.2638 64.4307 50.5641C63.1305 51.8643 62.4 53.6278 62.4 55.4667C62.4 57.3055 63.1305 59.069 64.4307 60.3693C65.731 61.6695 67.4945 62.4 69.3333 62.4H76.2667C79.9443 62.4 83.4714 63.861 86.0719 66.4615C88.6724 69.062 90.1333 72.589 90.1333 76.2667C90.1333 79.9443 88.6724 83.4714 86.0719 86.0719C83.4714 88.6724 79.9443 90.1333 76.2667 90.1333H69.3333C65.6557 90.1333 62.1286 88.6724 59.5281 86.0719C56.9276 83.4714 55.4667 79.9443 55.4667 76.2667H62.4C62.4 78.1055 63.1305 79.869 64.4307 81.1693C65.731 82.4695 67.4945 83.2 69.3333 83.2H76.2667C78.1055 83.2 79.869 82.4695 81.1693 81.1693C82.4695 79.869 83.2 78.1055 83.2 76.2667C83.2 74.4278 82.4695 72.6643 81.1693 71.3641C79.869 70.0638 78.1055 69.3333 76.2667 69.3333H69.3333C65.6557 69.3333 62.1286 67.8724 59.5281 65.2719C56.9276 62.6714 55.4667 59.1443 55.4667 55.4667ZM41.6 41.6V76.2667C41.6 78.1055 40.8695 79.869 39.5693 81.1693C38.269 82.4695 36.5055 83.2 34.6667 83.2C32.8278 83.2 31.0643 82.4695 29.7641 81.1693C28.4638 79.869 27.7333 78.1055 27.7333 76.2667H20.8C20.8 79.9443 22.2609 83.4714 24.8615 86.0719C27.462 88.6724 30.989 90.1333 34.6667 90.1333C38.3443 90.1333 41.8714 88.6724 44.4719 86.0719C47.0724 83.4714 48.5333 79.9443 48.5333 76.2667V41.6H41.6Z" fill="white"/>
</svg>
