<svg width="50" height="50" viewBox="0 0 50 50" fill="none" xmlns="http://www.w3.org/2000/svg">
<rect x="1" y="1" width="48" height="48" rx="19" stroke="white" stroke-width="2"/>
<path d="M19.6367 34.9999H15.3422V21.1701H19.6367V34.9999ZM17.4871 19.2835C16.1139 19.2835 15 18.1461 15 16.7728C15 16.1132 15.262 15.4805 15.7285 15.0141C16.1949 14.5477 16.8275 14.2856 17.4871 14.2856C18.1467 14.2856 18.7793 14.5477 19.2457 15.0141C19.7122 15.4805 19.9742 16.1132 19.9742 16.7728C19.9742 18.1461 18.8599 19.2835 17.4871 19.2835ZM35.7097 34.9999H31.4244V28.2676C31.4244 26.6632 31.392 24.6056 29.1916 24.6056C26.9588 24.6056 26.6166 26.3487 26.6166 28.152V34.9999H22.3268V21.1701H26.4456V23.0566H26.5057C27.079 21.97 28.4795 20.8233 30.569 20.8233C34.9153 20.8233 35.7143 23.6854 35.7143 27.403V34.9999H35.7097Z" fill="white"/>
</svg>
