<svg width="44" height="44" viewBox="0 0 44 44" fill="none" xmlns="http://www.w3.org/2000/svg">
<rect x="1" y="1" width="42" height="42" rx="14" stroke="#E95973" stroke-width="2"/>
<path d="M17.2802 30.8H13.501V18.6297H17.2802V30.8ZM15.3886 16.9696C14.1801 16.9696 13.2 15.9686 13.2 14.7601C13.2 14.1796 13.4305 13.6229 13.841 13.2125C14.2514 12.802 14.8081 12.5714 15.3886 12.5714C15.9691 12.5714 16.5258 12.802 16.9362 13.2125C17.3467 13.6229 17.5772 14.1796 17.5772 14.7601C17.5772 15.9686 16.5967 16.9696 15.3886 16.9696ZM31.4245 30.8H27.6534V24.8756C27.6534 23.4636 27.6249 21.653 25.6886 21.653C23.7237 21.653 23.4226 23.187 23.4226 24.7739V30.8H19.6475V18.6297H23.2721V20.2899H23.3249C23.8295 19.3336 25.0619 18.3245 26.9007 18.3245C30.7254 18.3245 31.4285 20.8432 31.4285 24.1147V30.8H31.4245Z" fill="#E95973"/>
</svg>
