<svg width="104" height="93" viewBox="0 0 104 93" fill="none" xmlns="http://www.w3.org/2000/svg">
<path d="M104 46.5109C104 39.5923 95.3723 33.035 82.1427 28.9709C85.1977 15.434 83.8413 4.66023 77.8613 1.20966C76.4123 0.39475 74.7724 -0.0154379 73.112 0.0217564V4.76466C74.087 4.76466 74.8713 4.96046 75.53 5.32162C78.4117 6.98381 79.664 13.3019 78.689 21.4344C78.455 23.436 78.0737 25.542 77.6057 27.6916C73.1754 26.6196 68.679 25.8448 64.1463 25.3723C61.446 21.6315 58.5 18.0758 55.328 14.7291C62.2397 8.2805 68.7267 4.74725 73.138 4.74725V0C67.3053 0 59.6743 4.17288 51.9567 11.4091C44.2433 4.22075 36.608 0.0870256 30.7797 0.0870256V4.82993C35.1693 4.82993 41.678 8.34576 48.5897 14.7509C45.6213 17.8838 42.653 21.4344 39.832 25.3723C35.2899 25.8396 30.7855 26.6217 26.351 27.7133C25.8613 25.5856 25.5017 23.523 25.246 21.5432C24.2493 13.4063 25.48 7.08824 28.3443 5.40865C28.977 5.02573 29.8047 4.85168 30.7797 4.85168V0.108782C29.003 0.108782 27.3867 0.491695 25.9913 1.29668C20.033 4.74725 18.6983 15.4949 21.7707 28.9926C8.58433 33.0828 0 39.6141 0 46.5109C0 53.4294 8.62767 59.9868 21.8573 64.0466C18.8023 77.5878 20.1587 88.3615 26.1387 91.8078C27.5167 92.6171 29.1287 93 30.9053 93C36.738 93 44.369 88.8271 52.0867 81.5909C59.8 88.7836 67.431 92.913 73.2637 92.913C74.9368 92.9485 76.5892 92.537 78.052 91.7207C84.0103 88.2745 85.345 77.5268 82.2727 64.0292C95.4157 59.9651 104 53.4077 104 46.5109ZM76.3967 32.3126C75.5733 35.1578 74.6189 37.963 73.5367 40.7193C71.765 37.259 69.8198 33.8911 67.7083 30.6287C70.72 31.0769 73.6233 31.6295 76.401 32.3126H76.3967ZM66.69 54.9828C65.039 57.8547 63.3403 60.5829 61.581 63.1154C55.2208 63.6783 48.8238 63.6856 42.4623 63.1371C38.8134 57.9033 35.6223 52.3623 32.9247 46.5762C35.6182 40.7763 38.7958 35.2159 42.4233 29.9542C48.782 29.3902 55.1775 29.3814 61.5377 29.9281C63.297 32.4606 65.0173 35.1671 66.6683 38.0215C68.2803 40.8063 69.745 43.6347 71.0797 46.4891C69.7302 49.3782 68.2658 52.2117 66.69 54.9828ZM73.5367 52.2154C74.6807 55.0655 75.66 57.9199 76.4617 60.6874C73.6883 61.3705 70.759 61.9449 67.73 62.3887C69.8327 59.0966 71.7707 55.7013 73.5367 52.2154ZM52.0433 74.9291C50.0717 72.884 48.1 70.6083 46.15 68.115C48.0567 68.202 50.0067 68.2673 51.9783 68.2673C53.9717 68.2673 55.9433 68.2238 57.8717 68.115C55.965 70.6083 53.9933 72.884 52.0433 74.9291ZM36.27 62.3887C33.3482 61.9636 30.4476 61.4032 27.5773 60.7091C28.3617 57.9635 29.3367 55.1308 30.4373 52.3024C31.3083 53.9994 32.2227 55.7051 33.2193 57.4109C34.216 59.1122 35.23 60.7744 36.27 62.3887ZM51.935 18.0926C53.9067 20.1377 55.8783 22.4135 57.8283 24.9068C55.9217 24.8197 53.9717 24.7545 52 24.7545C50.0067 24.7545 48.035 24.798 46.1067 24.9068C48.0133 22.4135 49.985 20.1377 51.935 18.0926ZM36.2483 30.633C34.1461 33.918 32.2081 37.306 30.4417 40.7846C29.3289 38.0105 28.3527 35.1831 27.5167 32.3126C30.29 31.6512 33.2193 31.0769 36.2483 30.633ZM17.0647 57.2803C9.55933 54.0691 4.706 49.8527 4.706 46.5109C4.706 43.1691 9.55933 38.9309 17.0647 35.7415C18.8847 34.9539 20.878 34.249 22.9363 33.5919C24.1453 37.7604 25.7357 42.103 27.703 46.5544C25.8456 50.7411 24.2747 55.0502 23.0013 59.4516C20.9883 58.8257 19.007 58.1011 17.0647 57.2803ZM28.47 87.6958C25.5883 86.0423 24.336 79.7155 25.311 71.5873C25.545 69.5857 25.9263 67.4754 26.3943 65.3258C30.5457 66.3484 35.0827 67.136 39.8537 67.6494C42.5541 71.3902 45.5001 74.9458 48.672 78.2927C41.7603 84.7413 35.2733 88.2745 30.862 88.2745C30.0297 88.2836 29.2081 88.0863 28.47 87.7001V87.6958ZM78.754 71.4786C79.7507 79.6111 78.52 85.9335 75.6557 87.6131C75.023 87.996 74.1953 88.1657 73.2203 88.1657C68.8307 88.1657 62.322 84.6542 55.4103 78.2448C58.3787 75.1206 61.347 71.5656 64.168 67.6277C68.7101 67.1605 73.2145 66.3783 77.649 65.2867C78.1387 67.4362 78.5157 69.4987 78.754 71.4786ZM86.9137 57.2803C85.0937 58.0679 83.1003 58.7728 81.042 59.4298C79.7462 55.006 78.1537 50.6752 76.2753 46.4674C78.2253 42.0421 79.7897 37.7213 80.977 33.5702C83.0787 34.2272 85.0677 34.9539 86.9353 35.7415C94.4407 38.9527 99.294 43.1691 99.294 46.5109C99.2723 49.8527 94.419 54.0908 86.9137 57.2803Z" fill="white"/>
<path d="M51.9784 56.24C54.5482 56.24 57.0127 55.2149 58.8298 53.3903C60.6469 51.5656 61.6677 49.0909 61.6677 46.5105C61.6677 43.9301 60.6469 41.4553 58.8298 39.6307C57.0127 37.8061 54.5482 36.781 51.9784 36.781C49.4086 36.781 46.9441 37.8061 45.127 39.6307C43.3099 41.4553 42.2891 43.9301 42.2891 46.5105C42.2891 49.0909 43.3099 51.5656 45.127 53.3903C46.9441 55.2149 49.4086 56.24 51.9784 56.24Z" fill="white"/>
</svg>
