<svg width="104" height="83" viewBox="0 0 104 83" fill="none" xmlns="http://www.w3.org/2000/svg">
<path d="M49.0453 62.7491C48.9965 62.8528 48.9478 62.9358 49.0453 62.7491V62.7491ZM89.5233 47.7065C86.2541 47.7065 83.0304 48.5019 80.0992 50.0407C79.1406 47.9832 78.1494 46.185 77.9869 44.8364C77.792 43.2629 77.5807 42.3293 77.8082 40.4619C78.0357 38.5946 79.0593 35.9492 79.0431 35.759C79.0268 35.5688 78.8156 34.6178 76.7196 34.6005C74.6235 34.5832 72.82 35.0328 72.6087 35.6207C72.2378 36.6947 71.9498 37.7992 71.7476 38.9231C71.3738 40.9461 67.5587 48.1734 65.3977 51.9427C64.6828 50.473 64.0816 49.1762 63.9516 48.1388C63.7566 46.5654 63.5454 45.6317 63.7728 43.7644C64.0003 41.897 65.024 39.2516 65.0077 39.0614C64.9915 38.8712 64.7802 37.9203 62.6875 37.903C60.5947 37.8857 58.7878 38.3352 58.5766 38.9231C58.3654 39.511 58.1379 40.8942 57.7154 42.2255C57.293 43.5569 52.2072 55.5909 50.8781 58.7204C50.1957 60.3111 49.6107 61.5906 49.1883 62.4551C49.1233 62.5935 49.0745 62.6799 49.042 62.7491C49.0908 62.6626 49.1233 62.5762 49.1233 62.6108C48.7658 63.3542 48.5546 63.7692 48.5546 63.7692V63.7865C48.2784 64.3398 47.9696 64.8412 47.8234 64.8412C47.7259 64.8412 47.5147 63.3888 47.8722 61.4004C48.6358 57.2162 50.4394 50.715 50.4232 50.4903C50.4069 50.3692 50.7644 49.2454 49.237 48.6402C47.7584 48.0696 47.2222 49.0206 47.0922 49.0206C46.9622 49.0206 46.8648 49.3664 46.8648 49.3664C46.8648 49.3664 48.5058 42.0353 43.7126 42.0353C40.7229 42.0353 36.5633 45.528 34.5192 48.6921C33.2356 49.4356 30.4571 51.0436 27.5324 52.7553L24.169 54.7264C24.0877 54.6399 24.0228 54.5535 23.9415 54.467C18.1246 47.8622 7.38764 43.1938 7.84259 34.3239C8.00508 31.0906 9.06122 22.6011 28.4911 12.2961C44.4145 3.85845 57.1435 6.17535 59.337 11.3278C62.4892 18.6762 52.5289 32.3528 35.9946 34.3239C29.6902 35.0674 26.3788 32.4738 25.5501 31.5056C24.6889 30.4854 24.5589 30.4336 24.234 30.6238C23.6978 30.935 24.039 31.8341 24.234 32.3701C24.7214 33.736 26.7525 36.1567 30.2134 37.367C33.2518 38.4217 40.6416 39.0095 49.575 35.3267C59.6133 31.2116 67.4287 19.7482 65.1345 10.1521C62.8012 0.4004 47.6057 -2.7983 33.2388 2.63084C24.6759 5.86412 15.4176 10.9475 8.759 17.5696C0.846029 25.454 -0.418097 32.3182 0.101852 35.1884C1.95417 45.3724 15.1446 52.0118 20.4221 56.9223L19.6909 57.3545C17.0424 58.755 6.98793 64.3571 4.46942 70.2703C1.62595 76.979 4.94063 81.7856 7.11466 82.4427C13.9065 84.4483 20.8576 80.8347 24.5947 74.9041C28.3318 68.9736 27.8769 61.2275 26.1545 57.7003C26.1383 57.6484 26.1058 57.6139 26.0895 57.562C28.0393 56.3331 30.0055 55.1342 31.9877 53.9656C31.3378 55.833 30.8666 58.0807 30.6229 61.3313C30.3304 65.1351 31.809 70.0629 33.7263 71.9994C34.5712 72.8466 35.5916 72.8639 36.2285 72.8639C38.4708 72.8639 39.4782 70.8928 40.5994 68.5413C41.9805 65.6711 43.1991 62.3341 43.1991 62.3341C43.1991 62.3341 41.6718 71.3596 45.8476 71.3596C47.375 71.3596 48.9023 69.2675 49.5847 68.1955V68.2128C49.5847 68.2128 49.6172 68.1436 49.6985 68.0053C49.861 67.746 49.9422 67.5903 49.9422 67.5903V67.5385C50.5596 66.4146 51.9083 63.8384 53.9393 59.585C56.5715 54.0867 59.0868 47.2224 59.0868 47.2224C59.3305 48.7301 59.6685 50.2205 60.0942 51.6833C60.5492 53.3259 61.5078 55.1241 62.2715 56.8704C61.654 57.7695 61.2803 58.2882 61.2803 58.2882C61.2803 58.302 61.2868 58.3124 61.2966 58.3228C60.8091 59.0144 60.2567 59.7579 59.688 60.484C57.6114 63.1122 55.1384 66.1207 54.8135 66.9852C54.4235 68.0053 54.521 68.7661 55.2684 69.354C55.8209 69.8035 56.7958 69.8727 57.8194 69.7862C59.688 69.6479 61.0041 69.1638 61.6378 68.8525C62.8066 68.4069 63.9113 67.7901 64.92 67.0198C66.951 65.4291 68.1859 63.1468 68.0722 60.1382C68.0072 58.4784 67.5035 56.8185 66.886 55.2624C67.0648 54.9857 67.2598 54.6918 67.4385 54.3979C69.5529 51.0406 71.4581 47.5393 73.1417 43.9165C73.3854 45.4242 73.7201 46.9146 74.1491 48.3774C74.539 49.7779 75.3027 51.3167 76.0014 52.821C72.9792 55.4318 71.1106 58.4576 70.4639 60.446C69.2616 64.1288 70.204 65.7887 71.975 66.1691C72.7712 66.342 73.9086 65.9443 74.7535 65.5639C76.0079 65.1178 77.1908 64.4712 78.2599 63.6447C80.291 62.054 82.257 59.8236 82.1238 56.7978C82.075 55.4318 81.7176 54.0659 81.2464 52.7518C83.7974 51.6107 87.112 50.9882 91.3366 51.5069C100.384 52.6308 102.155 58.6478 101.814 61.1549C101.472 63.662 99.5713 65.0625 98.9376 65.4775C98.3039 65.8924 98.109 66.0481 98.1577 66.3593C98.239 66.8088 98.5314 66.7915 99.0676 66.6878C99.815 66.5495 103.812 64.6475 103.991 59.9965C104.251 54.1178 98.9376 47.6512 89.5298 47.7031L89.5233 47.7065ZM19.7884 72.7256C16.7987 76.2009 12.6099 77.515 10.8063 76.4084C8.87274 75.2119 9.63642 70.0974 13.3216 66.3939C15.5638 64.1461 18.456 62.0713 20.3734 60.7918C20.8121 60.5152 21.4458 60.1002 22.2257 59.5988C22.2891 59.5556 22.3541 59.5152 22.4207 59.4778C22.5669 59.374 22.7294 59.2876 22.8919 59.1838C24.2372 64.4401 22.9406 69.0739 19.7884 72.7221V72.7256ZM41.6198 56.9223C40.5799 59.6368 38.3896 66.5529 37.054 66.1898C35.9166 65.8786 35.2179 60.6051 36.8265 55.418C37.6389 52.8072 39.3612 49.6949 40.3849 48.4846C42.026 46.5308 43.8296 45.9084 44.252 46.6864C44.8207 47.7065 42.2697 55.2278 41.6198 56.9223ZM59.6555 66.0861C59.2168 66.3282 58.8106 66.4838 58.6156 66.3627C58.4694 66.2763 58.7943 65.9478 58.7943 65.9478C58.7943 65.9478 61.0529 63.3715 61.9465 62.1958C62.4665 61.5042 63.0677 60.6915 63.7176 59.7924C63.7176 59.8789 63.7338 59.9653 63.7338 60.0691C63.7143 63.164 60.9196 65.2562 59.6522 66.0861H59.6555ZM73.5641 62.7145C73.2392 62.4724 73.2879 61.6598 74.3765 59.1354C74.799 58.1499 75.7739 56.49 77.4637 54.8993C77.6555 55.501 77.7595 56.1304 77.7725 56.7666C77.7562 60.657 75.1402 62.1093 73.5641 62.7145Z" fill="white"/>
</svg>
