<svg width="36" height="29" viewBox="0 0 36 29" fill="none" xmlns="http://www.w3.org/2000/svg">
<path d="M13.9575 19.9898C13.9575 21.5681 13.14 24.1508 11.205 24.1508C9.27 24.1508 8.4525 21.5681 8.4525 19.9898C8.4525 18.4114 9.27 15.8287 11.205 15.8287C13.14 15.8287 13.9575 18.4114 13.9575 19.9898ZM36 16.1761C36 18.5851 35.76 21.1377 34.6875 23.3503C31.845 29.1351 24.03 28.9991 18.435 28.9991C12.75 28.9991 4.47 29.203 1.515 23.3503C0.42 21.1603 0 18.5851 0 16.1761C0 13.0119 1.0425 10.0213 3.1125 7.59717C2.7225 6.40398 2.535 5.15037 2.535 3.91186C2.535 2.28821 2.9025 1.47261 3.63 0C7.0275 0 9.2025 0.679667 11.79 2.71867C13.965 2.19759 16.2 1.96348 18.4425 1.96348C20.4675 1.96348 22.5075 2.18249 24.4725 2.65825C27.0225 0.641908 29.1975 0 32.5575 0C33.2925 1.47261 33.6525 2.28821 33.6525 3.91186C33.6525 5.15037 33.4575 6.38132 33.075 7.55186C35.1375 9.99866 36 13.0119 36 16.1761ZM31.1775 19.9898C31.1775 16.6745 29.175 13.7519 25.665 13.7519C24.2475 13.7519 22.89 14.0087 21.465 14.205C20.3475 14.3787 19.23 14.4467 18.0825 14.4467C16.9425 14.4467 15.825 14.3787 14.7 14.205C13.2975 14.0087 11.925 13.7519 10.5 13.7519C6.99 13.7519 4.9875 16.6745 4.9875 19.9898C4.9875 26.6203 11.0175 27.6398 16.2675 27.6398H19.8825C25.155 27.6398 31.1775 26.6279 31.1775 19.9898ZM24.9825 15.8287C23.0475 15.8287 22.23 18.4114 22.23 19.9898C22.23 21.5681 23.0475 24.1508 24.9825 24.1508C26.9175 24.1508 27.735 21.5681 27.735 19.9898C27.735 18.4114 26.9175 15.8287 24.9825 15.8287Z" fill="#E95973"/>
</svg>
